<?xml version="1.0" standalone="no"?>
<!DOCTYPE svg PUBLIC "-//W3C//DTD SVG 20010904//EN"
 "http://www.w3.org/TR/2001/REC-SVG-20010904/DTD/svg10.dtd">
<svg version="1.0" xmlns="http://www.w3.org/2000/svg"
 width="640.000000pt" height="640.000000pt" viewBox="0 0 640.000000 640.000000"
 preserveAspectRatio="xMidYMid meet">

<g transform="translate(0.000000,640.000000) scale(0.100000,-0.100000)"
fill="#000000" stroke="none">
<path d="M1824 4616 c-3 -7 35 -67 84 -132 48 -66 162 -218 252 -339 89 -121
174 -232 188 -247 l26 -28 825 0 c454 0 831 4 837 8 10 7 108 135 210 275 53
73 252 345 304 414 18 23 29 47 25 53 -4 7 -437 10 -1376 10 -1150 0 -1370 -2
-1375 -14z"/>
<path d="M3185 3788 c-2 -7 -8 -38 -14 -68 -5 -30 -15 -80 -21 -110 -10 -53
-18 -102 -40 -227 -5 -32 -23 -130 -39 -218 -16 -88 -37 -200 -45 -250 -20
-120 -22 -128 -41 -220 -9 -44 -27 -143 -40 -220 -14 -77 -31 -176 -40 -220
-8 -44 -24 -134 -35 -200 -11 -66 -24 -137 -28 -157 -5 -20 -6 -42 -2 -48 4
-7 117 -9 361 -8 l354 3 -2 40 c-2 47 -20 168 -35 240 -25 118 -39 192 -44
220 -3 17 -14 82 -25 145 -11 63 -26 149 -35 190 -8 41 -21 116 -29 165 -17
101 -104 584 -136 750 -6 33 -15 83 -20 110 -16 85 -19 95 -30 95 -5 0 -11 -6
-14 -12z"/>
</g>
</svg>
